Coordinates
version=1
nRows=33
nColumns=21
inDegrees=yes

Units are S.I. units (second, meters, Newtons, ...)
Angles are in degrees.

endheader
time	sternoclavicular_r2	sternoclavicular_r3	unrotscap_r3	unrotscap_r2	acromioclavicular_r2	acromioclavicular_r3	acromioclavicular_r1	unrothum_r1	unrothum_r3	unrothum_r2	elv_angle	shoulder_elev	shoulder1_r2	shoulder_rot	elbow_flexion	pro_sup	deviation	flexion	wrist_hand_r1	wrist_hand_r3
      0.00000000	     -2.34223432	      0.99205991	     -0.99205991	      2.34223432	     -0.47425481	      3.83276052	      1.72279947	     -1.72279947	     -3.83276052	      0.47425481	     82.32859160	      9.67863253	    -82.32859160	     19.88918149	      4.54063793	     90.00000000	      0.00000000	      0.00000000	      0.00000000	      0.00000000
      0.02016129	     -2.34223827	      0.99206158	     -0.99206158	      2.34223827	     -0.47425560	      3.83276698	      1.72280238	     -1.72280238	     -3.83276698	      0.47425560	     82.32866233	      9.67864884	    -82.32866233	     19.88918219	      4.54061123	     90.00000000	      0.00000000	      0.00000000	      0.00000000	      0.00000000
      0.04032258	     -2.34351392	      0.99260189	     -0.99260189	      2.34351392	     -0.47451390	      3.83485441	      1.72374066	     -1.72374066	     -3.83485441	      0.47451390	     82.33784884	      9.68392010	    -82.33784884	     19.88912808	      4.53793998	     90.00000000	      0.00000000	      0.00000000	      0.00000000	      0.00000000
      0.06048387	     -2.34844789	      0.99469169	     -0.99469169	      2.34844789	     -0.47551293	      3.84292822	      1.72736979	     -1.72736979	     -3.84292822	      0.47551293	     82.33803482	      9.70430839	    -82.33803482	     19.88919868	      4.54111069	     90.00000000	      0.00000000	      0.00000000	      0.00000000	      0.00000000
      0.08064516	     -2.36125737	      1.00011718	     -1.00011718	      2.36125737	     -0.47810659	      3.86388925	      1.73679162	     -1.73679162	     -3.86388925	      0.47810659	     82.35729092	      9.75723999	    -82.35729092	     19.88919098	      4.54330619	     90.00000000	      0.00000000	      0.00000000	      0.00000000	      0.00000000
      0.10080645	     -2.38444125	      1.00993677	     -1.00993677	      2.38444125	     -0.48280085	      3.90182664	      1.75384422	     -1.75384422	     -3.90182664	      0.48280085	     82.39730323	      9.85304094	    -82.39730323	     19.88944806	      4.54947049	     90.00000000	      0.00000000	      0.00000000	      0.00000000	      0.00000000
      0.12096774	     -2.42067543	      1.02528386	     -1.02528386	      2.42067543	     -0.49013753	      3.96111914	      1.78049579	     -1.78049579	     -3.96111914	      0.49013753	     82.47304310	     10.00276862	    -82.47304310	     19.88995658	      4.55960806	     90.00000000	      0.00000000	      0.00000000	      0.00000000	      0.00000000
      0.14112903	     -2.47126080	      1.04670944	     -1.04670944	      2.47126080	     -0.50038004	      4.04389550	      1.81770319	     -1.81770319	     -4.04389550	      0.50038004	     82.53282374	     10.21179861	    -82.53282374	     19.89089289	      4.57980286	     90.00000000	      0.00000000	      0.00000000	      0.00000000	      0.00000000
      0.16129032	     -2.54043634	      1.07600893	     -1.07600893	      2.54043634	     -0.51438668	      4.15709223	      1.86858435	     -1.86858435	     -4.15709223	      0.51438668	     82.65491614	     10.49764731	    -82.65491614	     19.89077047	      4.59534302	     90.00000000	      0.00000000	      0.00000000	      0.00000000	      0.00000000
      0.18145161	     -2.62642935	      1.11243151	     -1.11243151	      2.62642935	     -0.53179852	      4.29780855	      1.93183537	     -1.93183537	     -4.29780855	      0.53179852	     82.75129305	     10.85298950	    -82.75129305	     19.89276931	      4.62725066	     90.00000000	      0.00000000	      0.00000000	      0.00000000	      0.00000000
      0.20161290	     -2.73070954	      1.15659968	     -1.15659968	      2.73070954	     -0.55291314	      4.46844947	      2.00853728	     -2.00853728	     -4.46844947	      0.55291314	     82.83870994	     11.28389844	    -82.83870994	     19.89589081	      4.67400916	     90.00000000	      0.00000000	      0.00000000	      0.00000000	      0.00000000
      0.22177419	     -2.85744192	      1.21027753	     -1.21027753	      2.85744192	     -0.57857386	      4.67583046	      2.10175361	     -2.10175361	     -4.67583046	      0.57857386	     83.02035967	     11.80758479	    -83.02035967	     19.90224706	      4.70609208	     90.00000000	      0.00000000	      0.00000000	      0.00000000	      0.00000000
      0.24193548	     -3.00570511	      1.27307482	     -1.27307482	      3.00570511	     -0.60859414	      4.91844379	      2.21080664	     -2.21080664	     -4.91844379	      0.60859414	     83.21195193	     12.42024121	    -83.21195193	     19.89618581	      4.73363001	     90.00000000	      0.00000000	      0.00000000	      0.00000000	      0.00000000
      0.26209677	     -3.17311795	      1.34398300	     -1.34398300	      3.17311795	     -0.64249184	      5.19239304	      2.33394494	     -2.33394494	     -5.19239304	      0.64249184	     83.39183256	     13.11202825	    -83.39183256	     19.89656889	      4.77775596	     90.00000000	      0.00000000	      0.00000000	      0.00000000	      0.00000000
      0.28225806	     -3.35936635	      1.42286903	     -1.42286903	      3.35936635	     -0.68020335	      5.49716422	      2.47093749	     -2.47093749	     -5.49716422	      0.68020335	     83.54435953	     13.88164803	    -83.54435953	     19.89923724	      4.83405685	     90.00000000	      0.00000000	      0.00000000	      0.00000000	      0.00000000
      0.30241935	     -3.56599072	      1.51038536	     -1.51038536	      3.56599072	     -0.72204058	      5.83527801	      2.62291730	     -2.62291730	     -5.83527801	      0.72204058	     83.70928106	     14.73546581	    -83.70928106	     19.90137761	      4.88710104	     90.00000000	      0.00000000	      0.00000000	      0.00000000	      0.00000000
      0.32258065	     -3.79177012	      1.60601486	     -1.60601486	      3.79177012	     -0.76775632	      6.20473651	      2.78898636	     -2.78898636	     -6.20473651	      0.76775632	     83.88324387	     15.66843647	    -83.88324387	     19.90196844	      4.93935256	     90.00000000	      0.00000000	      0.00000000	      0.00000000	      0.00000000
      0.34274194	     -4.03410575	      1.70865680	     -1.70865680	      4.03410575	     -0.81682435	      6.60128711	      2.96723312	     -2.96723312	     -6.60128711	      0.81682435	     84.03443404	     16.66982111	    -84.03443404	     19.90413016	      5.00485220	     90.00000000	      0.00000000	      0.00000000	      0.00000000	      0.00000000
      0.36290323	     -4.29431266	      1.81886816	     -1.81886816	      4.29431266	     -0.86951096	      7.02708173	      3.15862488	     -3.15862488	     -7.02708173	      0.86951096	     84.19933176	     17.74505387	    -84.19933176	     19.90441207	      5.05834555	     90.00000000	      0.00000000	      0.00000000	      0.00000000	      0.00000000
      0.38306452	     -4.56675697	      1.93426271	     -1.93426271	      4.56675697	     -0.92467539	      7.47290125	      3.35901768	     -3.35901768	     -7.47290125	      0.92467539	     84.30812609	     18.87085426	    -84.30812609	     19.90831058	      5.13781978	     90.00000000	      0.00000000	      0.00000000	      0.00000000	      0.00000000
      0.40322581	     -4.85626010	      2.05688258	     -2.05688258	      4.85626010	     -0.98329389	      7.94663531	      3.57195788	     -3.57195788	     -7.94663531	      0.98329389	     84.46575878	     20.06714552	    -84.46575878	     19.90839481	      5.18989965	     90.00000000	      0.00000000	      0.00000000	      0.00000000	      0.00000000
      0.42338710	     -5.15601397	      2.18384417	     -2.18384417	      5.15601397	     -1.04398795	      8.43714337	      3.79243788	     -3.79243788	     -8.43714337	      1.04398795	     84.59332783	     21.30579511	    -84.59332783	     19.90867158	      5.25016649	     90.00000000	      0.00000000	      0.00000000	      0.00000000	      0.00000000
      0.44354839	     -5.46560155	      2.31497085	     -2.31497085	      5.46560155	     -1.10667313	      8.94374299	      4.02015092	     -4.02015092	     -8.94374299	      1.10667313	     84.71174320	     22.58507974	    -84.71174320	     19.90940307	      5.31062573	     90.00000000	      0.00000000	      0.00000000	      0.00000000	      0.00000000
      0.46370968	     -5.78310234	      2.44944920	     -2.44944920	      5.78310234	     -1.17096059	      9.46329157	      4.25368443	     -4.25368443	     -9.46329157	      1.17096059	     84.82131465	     23.89706355	    -84.82131465	     19.90986823	      5.36863481	     90.00000000	      0.00000000	      0.00000000	      0.00000000	      0.00000000
      0.48387097	     -6.10640299	      2.58638410	     -2.58638410	      6.10640299	     -1.23642239	      9.99233085	      4.49148395	     -4.49148395	     -9.99233085	      1.23642239	     84.92317148	     25.23301366	    -84.92317148	     19.91030066	      5.42465154	     90.00000000	      0.00000000	      0.00000000	      0.00000000	      0.00000000
      0.50403226	     -6.43359675	      2.72496793	     -2.72496793	      6.43359675	     -1.30267247	     10.52774069	      4.73214699	     -4.73214699	    -10.52774069	      1.30267247	     85.01577423	     26.58505093	    -85.01577423	     19.91082248	      5.47610909	     90.00000000	      0.00000000	      0.00000000	      0.00000000	      0.00000000
      0.52419355	     -6.76181999	      2.86398781	     -2.86398781	      6.76181999	     -1.36913100	     11.06483515	      4.97356725	     -4.97356725	    -11.06483515	      1.36913100	     85.09921198	     27.94134228	    -85.09921198	     19.91004561	      5.52800980	     90.00000000	      0.00000000	      0.00000000	      0.00000000	      0.00000000
      0.54435484	     -7.09011851	      3.00303957	     -3.00303957	      7.09011851	     -1.43560477	     11.60205281	      5.21504289	     -5.21504289	    -11.60205281	      1.43560477	     85.17885516	     29.29794472	    -85.17885516	     19.90833827	      5.57124582	     90.00000000	      0.00000000	      0.00000000	      0.00000000	      0.00000000
      0.56451613	     -7.41519483	      3.14072655	     -3.14072655	      7.41519483	     -1.50142612	     12.13399774	      5.45414848	     -5.45414848	    -12.13399774	      1.50142612	     85.25034872	     30.64123229	    -85.25034872	     19.90898368	      5.61249952	     90.00000000	      0.00000000	      0.00000000	      0.00000000	      0.00000000
      0.58467742	     -7.73465181	      3.27603345	     -3.27603345	      7.73465181	     -1.56610966	     12.65674736	      5.68912083	     -5.68912083	    -12.65674736	      1.56610966	     85.31341169	     31.96129949	    -85.31341169	     19.90863506	      5.65476485	     90.00000000	      0.00000000	      0.00000000	      0.00000000	      0.00000000
      0.60483871	     -8.04831082	      3.40888460	     -3.40888460	      8.04831082	     -1.62961923	     13.17000935	      5.91982856	     -5.91982856	    -13.17000935	      1.62961923	     85.37799612	     33.25740818	    -85.37799612	     19.88624538	      5.68385200	     90.00000000	      0.00000000	      0.00000000	      0.00000000	      0.00000000
      0.62500000	     -8.35212006	      3.53756386	     -3.53756386	      8.35212006	     -1.69113442	     13.66715350	      6.14329144	     -6.14329144	    -13.66715350	      1.69113442	     85.42750568	     34.51281547	    -85.42750568	     19.90627584	      5.70958399	     90.00000000	      0.00000000	      0.00000000	      0.00000000	      0.00000000
      0.64516129	     -8.64450355	      3.66140371	     -3.66140371	      8.64450355	     -1.75033613	     14.14560088	      6.35835024	     -6.35835024	    -14.14560088	      1.75033613	     85.47567495	     35.72100899	    -85.47567495	     19.90506968	      5.73488706	     90.00000000	      0.00000000	      0.00000000	      0.00000000	      0.00000000
